<svg width="14" height="14" viewBox="0 0 14 14" fill="none" xmlns="http://www.w3.org/2000/svg">
<path d="M4.59998 10.3333L6.99998 7.93333L9.39998 10.3333L10.3333 9.39999L7.93331 6.99999L10.3333 4.59999L9.39998 3.66666L6.99998 6.06666L4.59998 3.66666L3.66665 4.59999L6.06665 6.99999L3.66665 9.39999L4.59998 10.3333ZM6.99998 13.6667C6.07776 13.6667 5.21109 13.4917 4.39998 13.1417C3.58887 12.7917 2.88331 12.3167 2.28331 11.7167C1.68331 11.1167 1.20831 10.4111 0.858313 9.59999C0.508313 8.78888 0.333313 7.92222 0.333313 6.99999C0.333313 6.07777 0.508313 5.21111 0.858313 4.39999C1.20831 3.58888 1.68331 2.88333 2.28331 2.28333C2.88331 1.68333 3.58887 1.20833 4.39998 0.858328C5.21109 0.508328 6.07776 0.333328 6.99998 0.333328C7.9222 0.333328 8.78887 0.508328 9.59998 0.858328C10.4111 1.20833 11.1166 1.68333 11.7166 2.28333C12.3166 2.88333 12.7916 3.58888 13.1416 4.39999C13.4916 5.21111 13.6666 6.07777 13.6666 6.99999C13.6666 7.92222 13.4916 8.78888 13.1416 9.59999C12.7916 10.4111 12.3166 11.1167 11.7166 11.7167C11.1166 12.3167 10.4111 12.7917 9.59998 13.1417C8.78887 13.4917 7.9222 13.6667 6.99998 13.6667Z" fill="#7F858D"/>
</svg>
